<?xml version="1.0" standalone="no"?>
<!DOCTYPE svg PUBLIC "-//W3C//DTD SVG 20010904//EN"
 "http://www.w3.org/TR/2001/REC-SVG-20010904/DTD/svg10.dtd">
<svg version="1.0" xmlns="http://www.w3.org/2000/svg"
 width="1024.000000pt" height="1024.000000pt" viewBox="0 0 1024.000000 1024.000000"
 preserveAspectRatio="xMidYMid meet">
<metadata>
Created by potrace 1.11, written by Peter Selinger 2001-2013
</metadata>
<g transform="translate(0.000000,1024.000000) scale(0.100000,-0.100000)"
fill="#000000" stroke="none">
<path d="M4850 10234 c-25 -2 -103 -9 -175 -14 -175 -14 -375 -44 -580 -85
-1316 -267 -2482 -1050 -3230 -2170 -481 -721 -760 -1513 -847 -2400 -7 -74
-13 -265 -13 -445 0 -320 9 -458 46 -715 206 -1446 1014 -2732 2224 -3540 721
-481 1513 -760 2400 -847 74 -7 265 -13 445 -13 320 0 458 9 715 46 1446 206
2732 1014 3540 2224 481 721 760 1513 847 2400 7 74 13 265 13 445 0 320 -9
458 -46 715 -206 1446 -1014 2732 -2224 3540 -716 477 -1514 760 -2385 845
-114 11 -644 21 -730 14z m648 -2368 c313 -47 579 -131 852 -267 542 -271 967
-697 1239 -1239 140 -280 227 -564 273 -890 20 -143 17 -574 -5 -719 -9 -63
-21 -119 -25 -123 -4 -4 -1083 -296 -2398 -648 -1314 -352 -2397 -643 -2406
-646 -40 -12 -263 308 -386 555 -141 281 -228 565 -274 891 -17 127 -17 563 0
690 88 627 359 1178 791 1611 432 432 1024 721 1611 788 52 6 109 13 125 15
70 10 505 -3 603 -18z"/>
</g>
</svg>
